<svg width="18" height="15" viewBox="0 0 18 15" fill="none" xmlns="http://www.w3.org/2000/svg">
<g id="Group">
<path id="Vector" d="M14.762 10.129C14.1 10.129 13.5633 9.59232 13.5633 8.93028V6.15939C13.5633 4.13513 11.9164 2.48833 9.89222 2.48833H8.44256C6.4183 2.48833 4.7715 4.13516 4.7715 6.15939V8.93028C4.7715 9.59232 4.2348 10.129 3.57276 10.129C2.91073 10.129 2.37402 9.59232 2.37402 8.93028V6.15939C2.37402 2.81316 5.09636 0.0908203 8.44259 0.0908203H9.89226C13.2385 0.0908203 15.9608 2.81316 15.9608 6.15939V8.93028C15.9608 9.59232 15.4241 10.129 14.762 10.129Z" fill="url(#paint0_linear_6821_13767)"/>
<path id="Vector_2" d="M4.5902 7.75391H3.20768C1.92854 7.75391 0.891602 8.79085 0.891602 10.07V12.0671C0.891602 13.3462 1.92854 14.3831 3.20768 14.3831H4.59023L4.5902 7.75391Z" fill="url(#paint1_linear_6821_13767)"/>
<path id="Vector_3" d="M5.13204 7.38281C4.09358 7.75384 4.44113 9.56997 4.44113 11.069C4.44113 12.568 4.59039 14.3831 5.76718 14.6176C6.70701 14.2778 7.37881 13.3778 7.37881 12.3208V9.81614C7.37884 8.53329 6.38932 7.48228 5.13204 7.38281Z" fill="url(#paint2_linear_6821_13767)"/>
<path id="Vector_4" d="M4.93688 7.375C3.58834 7.375 2.49512 8.46822 2.49512 9.81677V12.3214C2.49512 13.67 3.58834 14.7632 4.93688 14.7632C5.21992 14.7634 5.50083 14.7144 5.76702 14.6182C5.23992 14.2726 5.14543 13.2896 5.33729 12.9805L5.12597 9.09897C4.91655 8.83718 4.77631 7.87563 5.13185 7.38344C5.067 7.37806 5.00196 7.37525 4.93688 7.375Z" fill="url(#paint3_linear_6821_13767)"/>
<path id="Vector_5" d="M4.93721 13.1642C4.47137 13.1642 4.09375 12.7866 4.09375 12.3208V9.81612C4.09375 9.35031 4.47137 8.97266 4.93718 8.97266C5.40298 8.97266 5.7806 9.35027 5.7806 9.81612V12.3208C5.78067 12.7866 5.40305 13.1642 4.93721 13.1642Z" fill="url(#paint4_linear_6821_13767)"/>
<path id="Vector_6" d="M13.7451 7.75391H15.1277C16.4068 7.75391 17.4437 8.79085 17.4437 10.07V12.0671C17.4437 13.3462 16.4068 14.3831 15.1277 14.3831H13.7451V7.75391Z" fill="url(#paint5_linear_6821_13767)"/>
<path id="Vector_7" d="M15.8396 12.3214V9.81677C15.8396 8.46822 14.7464 7.375 13.3978 7.375C12.0493 7.375 10.9561 8.46822 10.9561 9.81677V12.3214C10.9561 13.67 12.0493 14.7632 13.3978 14.7632C14.7464 14.7632 15.8396 13.67 15.8396 12.3214Z" fill="url(#paint6_linear_6821_13767)"/>
<path id="Vector_8" d="M13.3981 13.1642C13.864 13.1642 14.2416 12.7866 14.2416 12.3208V9.81612C14.2416 9.35031 13.864 8.97266 13.3981 8.97266C12.9323 8.97266 12.5547 9.35027 12.5547 9.81612V12.3208C12.5547 12.7866 12.9323 13.1642 13.3981 13.1642Z" fill="url(#paint7_linear_6821_13767)"/>
</g>
<defs>
<linearGradient id="paint0_linear_6821_13767" x1="9.16772" y1="0.1633" x2="9.16772" y2="10.1161" gradientUnits="userSpaceOnUse">
<stop stop-color="#E0B181"/>
<stop offset="1" stop-color="#FFE8D0"/>
</linearGradient>
<linearGradient id="paint1_linear_6821_13767" x1="2.741" y1="7.80177" x2="2.741" y2="14.3746" gradientUnits="userSpaceOnUse">
<stop stop-color="#FFD7AE"/>
<stop offset="1" stop-color="#BE9367"/>
</linearGradient>
<linearGradient id="paint2_linear_6821_13767" x1="5.88209" y1="7.43505" x2="5.88209" y2="14.6082" gradientUnits="userSpaceOnUse">
<stop stop-color="#E0B181"/>
<stop offset="1" stop-color="#BE9367"/>
</linearGradient>
<linearGradient id="paint3_linear_6821_13767" x1="4.13114" y1="7.42835" x2="4.13114" y2="14.7537" gradientUnits="userSpaceOnUse">
<stop stop-color="#E0B181"/>
<stop offset="1" stop-color="#BE9367"/>
</linearGradient>
<linearGradient id="paint4_linear_6821_13767" x1="1.01648" y1="1.25573" x2="11.2703" y2="8.55459" gradientUnits="userSpaceOnUse">
<stop offset="0.402843" stop-color="#F6BB91" stop-opacity="0.549561"/>
<stop offset="0.907674" stop-color="white"/>
</linearGradient>
<linearGradient id="paint5_linear_6821_13767" x1="15.5945" y1="7.80177" x2="15.5945" y2="14.3746" gradientUnits="userSpaceOnUse">
<stop stop-color="#FFD7AE"/>
<stop offset="1" stop-color="#BE9367"/>
</linearGradient>
<linearGradient id="paint6_linear_6821_13767" x1="13.3979" y1="7.42835" x2="13.3979" y2="14.7537" gradientUnits="userSpaceOnUse">
<stop stop-color="#E0B181"/>
<stop offset="1" stop-color="#BE9367"/>
</linearGradient>
<linearGradient id="paint7_linear_6821_13767" x1="9.47736" y1="1.25573" x2="19.7312" y2="8.55478" gradientUnits="userSpaceOnUse">
<stop offset="0.402843" stop-color="#F6BB91" stop-opacity="0.549561"/>
<stop offset="0.907674" stop-color="white"/>
</linearGradient>
</defs>
</svg>
