<svg width="16" height="18" viewBox="0 0 16 18" fill="none" xmlns="http://www.w3.org/2000/svg">
<g id="Group">
<path id="Vector" d="M14.3547 17.0604C13.8019 17.6572 13.0182 17.9999 12.2046 17.9999H3.79401C2.98042 17.9999 2.19672 17.6572 1.64389 17.0604C1.09109 16.4637 0.809557 15.6561 0.871784 14.8446L1.67588 4.71298C1.72576 4.06178 2.27789 3.55078 2.93226 3.55078H13.0664C13.7207 3.55078 14.2729 4.06178 14.3227 4.71438L15.1265 14.8432C15.1891 15.6561 14.9076 16.4637 14.3547 17.0604Z" fill="url(#paint0_linear_6821_13854)"/>
<path id="Vector_2" d="M11.4781 3.47959V5.90347C11.4781 6.19481 11.2423 6.43064 10.9509 6.43064C10.6599 6.43064 10.4237 6.19481 10.4237 5.90347V3.47959C10.4237 2.14235 9.33604 1.0543 7.9988 1.0543H7.99423C6.65911 1.05676 5.57387 2.14376 5.57387 3.47959V5.90347C5.57387 6.19481 5.33769 6.43064 5.0467 6.43064C4.75536 6.43064 4.51953 6.19481 4.51953 5.90347V3.47959C4.51953 1.56248 6.0778 0.00246094 7.9942 0H7.99877C9.91735 0 11.4781 1.56108 11.4781 3.47959Z" fill="url(#paint1_linear_6821_13854)"/>
</g>
<defs>
<linearGradient id="paint0_linear_6821_13854" x1="7.99948" y1="3.65511" x2="7.99948" y2="17.9813" gradientUnits="userSpaceOnUse">
<stop stop-color="#E0B181"/>
<stop offset="1" stop-color="#BE9367"/>
</linearGradient>
<linearGradient id="paint1_linear_6821_13854" x1="-8.17471" y1="-11.8392" x2="7.35643" y2="22.1264" gradientUnits="userSpaceOnUse">
<stop offset="0.402843" stop-color="#F6BB91"/>
<stop offset="0.907674" stop-color="white"/>
</linearGradient>
</defs>
</svg>
