<svg width="18" height="19" viewBox="0 0 18 19" fill="none" xmlns="http://www.w3.org/2000/svg">
<g id="icons8-instagram (8) 1" clip-path="url(#clip0_6851_85719)">
<path id="Vector" d="M5.24854 1C2.35429 1 0 3.35646 0 6.25146V13.7515C0 16.6457 2.35646 19 5.25146 19H12.7515C15.6457 19 18 16.6435 18 13.7485V6.24854C18 3.35429 15.6435 1 12.7485 1H5.24854ZM14.25 4C14.664 4 15 4.336 15 4.75C15 5.164 14.664 5.5 14.25 5.5C13.836 5.5 13.5 5.164 13.5 4.75C13.5 4.336 13.836 4 14.25 4ZM9 5.5C11.4818 5.5 13.5 7.51825 13.5 10C13.5 12.4818 11.4818 14.5 9 14.5C6.51825 14.5 4.5 12.4818 4.5 10C4.5 7.51825 6.51825 5.5 9 5.5ZM9 7C8.20435 7 7.44129 7.31607 6.87868 7.87868C6.31607 8.44129 6 9.20435 6 10C6 10.7956 6.31607 11.5587 6.87868 12.1213C7.44129 12.6839 8.20435 13 9 13C9.79565 13 10.5587 12.6839 11.1213 12.1213C11.6839 11.5587 12 10.7956 12 10C12 9.20435 11.6839 8.44129 11.1213 7.87868C10.5587 7.31607 9.79565 7 9 7Z" fill="url(#paint0_linear_6851_85719)"/>
</g>
<defs>
<linearGradient id="paint0_linear_6851_85719" x1="9.00039" y1="1.12997" x2="9.00039" y2="31.305" gradientUnits="userSpaceOnUse">
<stop stop-color="#FFC78D"/>
<stop offset="0.434814" stop-color="#DA6E00"/>
<stop offset="1" stop-color="#FFDEBD"/>
</linearGradient>
<clipPath id="clip0_6851_85719">
<rect width="18" height="18" fill="white" transform="translate(0 0.714844)"/>
</clipPath>
</defs>
</svg>
