<svg width="18" height="18" viewBox="0 0 18 18" fill="none" xmlns="http://www.w3.org/2000/svg">
<g id="USER">
<path id="Vector" d="M4.6631 4.34844C4.6631 1.94611 6.60921 0.00577482 9.00576 0C11.4081 0 13.3542 1.94611 13.36 4.34844C13.36 6.75076 11.4139 8.69687 9.01154 8.69687H9.00576C6.60921 8.69687 4.65732 6.75076 4.6631 4.34844Z" fill="url(#paint0_linear_6821_13865)"/>
<path id="Vector_2" d="M15.9342 14.2747C15.9342 14.8175 15.6974 15.3315 15.2874 15.6837C13.5376 17.1852 11.3086 18.0052 9.0044 17.9994C6.70025 18.0052 4.47117 17.1852 2.7214 15.6837C2.30562 15.3315 2.06885 14.8175 2.06885 14.2747C2.06885 11.8435 4.04383 9.8916 6.47503 9.8916H11.5395C13.9707 9.8916 15.9342 11.8435 15.9342 14.2747Z" fill="url(#paint1_linear_6821_13865)"/>
</g>
<defs>
<linearGradient id="paint0_linear_6821_13865" x1="9.01172" y1="0.0627952" x2="9.01172" y2="8.68567" gradientUnits="userSpaceOnUse">
<stop stop-color="#E0B181"/>
<stop offset="1" stop-color="#BE9367"/>
</linearGradient>
<linearGradient id="paint1_linear_6821_13865" x1="9.00181" y1="9.95014" x2="9.00181" y2="17.989" gradientUnits="userSpaceOnUse">
<stop stop-color="#E0B181"/>
<stop offset="1" stop-color="#BE9367"/>
</linearGradient>
</defs>
</svg>
