<svg width="14" height="14" viewBox="0 0 14 14" fill="none" xmlns="http://www.w3.org/2000/svg">
<g id="Frame 1000005915">
<path id="Vector" d="M7.00195 3.5616C7.4842 3.5616 7.9467 3.75338 8.28771 4.09473C8.62872 4.43609 8.8203 4.89906 8.8203 5.38181C8.8203 5.86456 8.62872 6.32753 8.28771 6.66889C7.9467 7.01024 7.4842 7.20202 7.00195 7.20202C6.51969 7.20202 6.05716 7.01024 5.71615 6.66889C5.37515 6.32753 5.18359 5.86456 5.18359 5.38181C5.18359 4.89906 5.37515 4.43609 5.71615 4.09473C6.05716 3.75338 6.51969 3.5616 7.00195 3.5616ZM7.00195 2.52148C6.24411 2.52148 5.51731 2.82284 4.98144 3.35926C4.44557 3.89567 4.14453 4.6232 4.14453 5.38181C4.14453 6.14042 4.44557 6.86795 4.98144 7.40436C5.51731 7.94078 6.24411 8.24214 7.00195 8.24214C7.75978 8.24214 8.48658 7.94078 9.02245 7.40436C9.55832 6.86795 9.85936 6.14042 9.85936 5.38181C9.85936 4.6232 9.55832 3.89567 9.02245 3.35926C8.48658 2.82284 7.75978 2.52148 7.00195 2.52148Z" fill="#17395C"/>
<path id="Vector_2" d="M6.99957 1.04012C7.14244 1.04012 7.28789 1.04011 7.43335 1.06092C8.40046 1.16225 9.30573 1.58514 10.0045 2.26202C10.7033 2.9389 11.1553 3.8307 11.2883 4.79494C11.4003 5.61469 11.2722 6.44938 10.9194 7.19762C10.9095 7.22458 10.8973 7.25067 10.883 7.27562C10.8233 7.39524 10.761 7.50965 10.6934 7.62406L8.03863 12.4632C7.95679 12.6143 7.8355 12.7403 7.68773 12.8277C7.53996 12.9152 7.37126 12.9609 7.19959 12.9599C7.0389 12.9608 6.88064 12.9206 6.73974 12.8433C6.59884 12.7659 6.47994 12.6539 6.39429 12.5178C5.47992 11.0747 4.0772 8.8618 3.4174 7.80348L3.37583 7.73588C2.91923 7.03203 2.67485 6.21143 2.67187 5.3722C2.67187 4.22326 3.12783 3.12138 3.93943 2.30895C4.75103 1.49653 5.85179 1.04012 6.99957 1.04012ZM6.99957 0C5.57685 0.00206351 4.21299 0.568725 3.20697 1.57576C2.20096 2.5828 1.63487 3.94804 1.63281 5.3722C1.63608 6.41276 1.93913 7.43028 2.50562 8.30274C2.50562 8.32355 2.529 8.34435 2.54199 8.36515C3.1888 9.40527 4.51619 11.4855 5.51889 13.0743C5.69768 13.3585 5.94575 13.5926 6.23974 13.7546C6.53374 13.9165 6.86403 14.0009 7.19959 14C7.55733 13.9992 7.90829 13.9023 8.21582 13.7193C8.52335 13.5363 8.77614 13.2741 8.9478 12.9599L11.5922 8.13892C11.6701 8.01151 11.7403 7.87889 11.8078 7.74628C11.826 7.70987 11.8468 7.67087 11.8624 7.63186C12.296 6.70358 12.4547 5.67032 12.3195 4.65453C12.1525 3.45893 11.5903 2.35376 10.7226 1.51533C9.85485 0.676892 8.73161 0.153487 7.53207 0.0285994C7.35943 0.0112965 7.18604 0.0026165 7.01254 0.0025949L6.99957 0Z" fill="#17395C"/>
</g>
</svg>
