<svg width="16" height="16" viewBox="0 0 16 16" fill="none" xmlns="http://www.w3.org/2000/svg">
<g clip-path="url(#clip0_6849_2676)">
<path fill-rule="evenodd" clip-rule="evenodd" d="M13.0191 13.8268V11.8826C13.0191 11.6732 12.893 11.4876 12.6957 11.4217L9.79644 10.4496C9.65458 10.4018 9.5 10.4234 9.37542 10.506L8.15842 11.322C8.15054 11.3272 8.14084 11.3278 8.13235 11.3239C7.4843 11.0105 6.76986 10.4688 6.13939 9.84305C5.50922 9.21695 4.96271 8.50641 4.65111 7.855C4.64687 7.84647 4.64778 7.83671 4.65293 7.82879L5.46406 6.60463C5.5465 6.47995 5.56742 6.32389 5.52013 6.18123L4.55351 3.27171C4.48834 3.07327 4.30374 2.93945 4.09551 2.93945H2.16256C1.77945 2.93945 1.43052 3.08812 1.17103 3.33149C1.14217 3.35781 1.11437 3.38529 1.08771 3.41385L1.0824 3.4188C1.04441 3.45271 1.00822 3.4886 0.973989 3.52631C0.965871 3.53477 0.957855 3.54333 0.949942 3.55199L0.929508 3.57293C0.909851 3.59133 0.890706 3.61028 0.872097 3.62975L0.8565 3.6454C0.82038 3.67844 0.785935 3.71329 0.753309 3.7498C0.742862 3.75941 0.732556 3.76917 0.722394 3.77909C0.692195 3.80698 0.663182 3.83614 0.635441 3.86649C0.616495 3.88503 0.598054 3.90408 0.58014 3.92362C0.570854 3.93292 0.561693 3.94235 0.55266 3.9519L0.537347 3.96657C0.518096 3.98435 0.499327 4.00265 0.481063 4.02144C0.462352 4.03963 0.444129 4.05832 0.426417 4.07749C0.406805 4.09757 0.387769 4.11822 0.369338 4.13941C0.139767 4.39587 0 4.73488 0 5.10762C0 7.9074 1.32399 10.631 3.34424 12.6544C5.36417 14.6781 8.07975 16.0016 10.8635 16.0016C11.2563 16.0016 11.6302 15.8365 11.899 15.5592C11.9207 15.5391 11.9418 15.5183 11.9623 15.4969C11.9723 15.487 11.9822 15.477 11.992 15.4668C12.0093 15.4505 12.0263 15.4337 12.0429 15.4166C12.0602 15.3996 12.0771 15.3823 12.0935 15.3645L12.1006 15.3574C12.1156 15.3431 12.1303 15.3285 12.1447 15.3135C12.1523 15.306 12.1599 15.2984 12.1673 15.2908C12.1772 15.2812 12.187 15.2714 12.1966 15.2615C12.2111 15.2474 12.2254 15.2329 12.2393 15.2182C12.2497 15.2081 12.2599 15.1979 12.27 15.1875C12.285 15.1729 12.2997 15.1579 12.314 15.1426L12.3156 15.141L12.3259 15.1311C12.3593 15.1002 12.3913 15.0678 12.4219 15.0337C12.4295 15.0263 12.4371 15.0188 12.4447 15.0112C12.4538 15.0024 12.4629 14.9935 12.4719 14.9844L12.4876 14.9692C12.5144 14.9443 12.5403 14.9183 12.5652 14.8913C12.5773 14.8789 12.5892 14.8663 12.6009 14.8535C12.8559 14.596 13.0191 14.2391 13.0191 13.8268Z" fill="url(#paint0_linear_6849_2676)"/>
<path d="M13.0339 11.867V13.8111C13.0339 14.6567 12.3473 15.2691 11.5911 15.2691C8.80729 15.2691 6.09171 13.9456 4.07177 11.9219C2.05153 9.89845 0.727539 7.17487 0.727539 4.37508C0.727539 3.57096 1.37802 2.92383 2.17732 2.92383H4.11027C4.31851 2.92383 4.5031 3.05764 4.56827 3.25608L5.5349 6.1656C5.58218 6.30826 5.56127 6.46433 5.47882 6.589L4.66769 7.81316C4.66254 7.82109 4.66163 7.83084 4.66587 7.83938C4.97747 8.49078 5.52398 9.20132 6.15415 9.82742C6.78463 10.4532 7.49906 10.9949 8.14712 11.3082C8.1556 11.3122 8.1653 11.3116 8.17318 11.3064L9.39018 10.4904C9.51476 10.4078 9.66934 10.3862 9.8112 10.434L12.7105 11.4061C12.9078 11.4719 13.0339 11.6576 13.0339 11.867Z" fill="url(#paint1_linear_6849_2676)"/>
<path fill-rule="evenodd" clip-rule="evenodd" d="M10.3086 0.0117188H13.3248C14.7799 0.0117188 15.9889 1.20252 15.9889 2.66581C15.9889 3.34158 15.731 3.95923 15.3101 4.42833C15.2339 4.51428 15.1522 4.59532 15.0657 4.67091C15.0415 4.69272 15.017 4.7141 14.9921 4.73504C14.9737 4.75165 14.955 4.768 14.936 4.78409L14.9182 4.79977C14.8996 4.8166 14.8808 4.83319 14.8617 4.84951C14.8505 4.85938 14.8393 4.86917 14.8279 4.87887C14.8063 4.89797 14.7844 4.91674 14.7622 4.93515L14.7409 4.95383L14.736 4.95817C14.6985 4.9932 14.66 5.02717 14.6205 5.06004C14.5688 5.10772 14.5152 5.1534 14.4598 5.19695C14.4285 5.22244 14.3966 5.24723 14.3641 5.2713C13.9153 5.61168 13.3573 5.81404 12.7575 5.81404H11.4824L10.5646 6.73702C10.5535 6.74811 10.5419 6.75839 10.5298 6.76787L10.5294 6.76827C10.5154 6.78232 10.5005 6.79508 10.4849 6.80653C10.4788 6.81216 10.4725 6.81755 10.4661 6.82272L10.462 6.82686C10.4485 6.84045 10.4341 6.85282 10.419 6.86398L10.4171 6.86592C10.4061 6.87701 10.3944 6.8873 10.3823 6.89677L10.3819 6.89717C10.3702 6.90897 10.3578 6.91986 10.3449 6.92982C10.3341 6.94034 10.3229 6.95011 10.3112 6.95912C10.2984 6.97166 10.2848 6.98314 10.2707 6.99354C10.2623 7.00144 10.2536 7.0089 10.2446 7.01592C10.2341 7.02641 10.223 7.03618 10.2115 7.0452C10.2008 7.05578 10.1896 7.06562 10.178 7.0747L10.1681 7.08467C10.1543 7.09852 10.1396 7.11112 10.1242 7.12244C10.1137 7.13235 10.1027 7.14157 10.0913 7.15008C10.0865 7.1546 10.0817 7.15898 10.0768 7.16322L10.0655 7.17452C10.0502 7.18996 10.0337 7.20384 10.0163 7.21613C10.0042 7.22702 9.99157 7.23701 9.97842 7.2461C9.87096 7.3334 9.7239 7.35491 9.59696 7.30159C9.52809 7.27303 9.46927 7.22449 9.4278 7.16206C9.38658 7.09988 9.36446 7.02658 9.36446 6.9515V5.8148C9.36446 5.79887 9.35265 5.78547 9.33706 5.78295C8.07276 5.5868 7.07715 4.48522 7.07715 3.15995C7.07715 2.37709 7.42327 1.67222 7.96798 1.18597C7.98993 1.16547 8.01221 1.14534 8.03483 1.12559C8.05897 1.10375 8.0835 1.08235 8.10842 1.0614C8.133 1.0393 8.15799 1.01765 8.18337 0.996463C8.20004 0.981587 8.21689 0.966916 8.23392 0.952453C8.26794 0.921194 8.30276 0.8908 8.33835 0.861307L8.35963 0.84264C8.38767 0.817486 8.41624 0.792912 8.44533 0.768939C8.55847 0.660919 8.68101 0.562669 8.8115 0.475574C9.24011 0.183042 9.75667 0.0117188 10.3086 0.0117188Z" fill="url(#paint2_linear_6849_2676)"/>
<path d="M13.3358 0.00195312H10.3196C8.86453 0.00195312 7.65527 1.19275 7.65527 2.65604C7.65527 3.98132 8.65088 5.08289 9.91519 5.27904C9.93077 5.28157 9.94258 5.29496 9.94258 5.31089V6.4476C9.94258 6.52267 9.9647 6.59597 10.0059 6.65815C10.0474 6.72059 10.1062 6.76912 10.1751 6.79768C10.3141 6.85607 10.4772 6.82473 10.586 6.71553L11.8275 5.4671L11.9743 5.31948C11.9803 5.31342 11.9883 5.31013 11.9969 5.31013H13.3356C14.7907 5.31013 15.9999 4.11933 15.9999 2.65604C15.9999 1.19275 14.7909 0.00195312 13.3358 0.00195312Z" fill="url(#paint3_linear_6849_2676)"/>
<path d="M10.0302 3.29543C10.3016 3.29543 10.5218 3.07394 10.5218 2.80103C10.5218 2.52813 10.3016 2.30664 10.0302 2.30664C9.75882 2.30664 9.53857 2.52813 9.53857 2.80103C9.53857 3.07394 9.75882 3.29543 10.0302 3.29543Z" fill="url(#paint4_linear_6849_2676)"/>
<path d="M11.9965 3.29543C12.2679 3.29543 12.4881 3.07394 12.4881 2.80103C12.4881 2.52813 12.2679 2.30664 11.9965 2.30664C11.7251 2.30664 11.5049 2.52813 11.5049 2.80103C11.5049 3.07394 11.7251 3.29543 11.9965 3.29543Z" fill="url(#paint5_linear_6849_2676)"/>
<path d="M13.9633 3.29543C14.2347 3.29543 14.4549 3.07394 14.4549 2.80103C14.4549 2.52813 14.2347 2.30664 13.9633 2.30664C13.6919 2.30664 13.4717 2.52813 13.4717 2.80103C13.4717 3.07394 13.6919 3.29543 13.9633 3.29543Z" fill="url(#paint6_linear_6849_2676)"/>
</g>
<defs>
<linearGradient id="paint0_linear_6849_2676" x1="7.60067" y1="3.37729" x2="3.02705" y2="16.1622" gradientUnits="userSpaceOnUse">
<stop offset="0.19" stop-color="#FFE5CB"/>
<stop offset="1" stop-color="#EEC093"/>
</linearGradient>
<linearGradient id="paint1_linear_6849_2676" x1="6.88071" y1="3.02168" x2="6.88071" y2="15.0731" gradientUnits="userSpaceOnUse">
<stop stop-color="#11375F"/>
<stop offset="1" stop-color="#2365AA"/>
</linearGradient>
<linearGradient id="paint2_linear_6849_2676" x1="11.533" y1="0.0697269" x2="11.533" y2="7.21431" gradientUnits="userSpaceOnUse">
<stop stop-color="#11375F"/>
<stop offset="1" stop-color="#2365AA"/>
</linearGradient>
<linearGradient id="paint3_linear_6849_2676" x1="12.527" y1="0.23071" x2="10.5021" y2="7.17479" gradientUnits="userSpaceOnUse">
<stop offset="0.19" stop-color="#FFE5CB"/>
<stop offset="1" stop-color="#EEC093"/>
</linearGradient>
<linearGradient id="paint4_linear_6849_2676" x1="10.0302" y1="2.31448" x2="10.0302" y2="3.27973" gradientUnits="userSpaceOnUse">
<stop stop-color="#11375F"/>
<stop offset="1" stop-color="#2365AA"/>
</linearGradient>
<linearGradient id="paint5_linear_6849_2676" x1="11.9965" y1="2.31448" x2="11.9965" y2="3.27973" gradientUnits="userSpaceOnUse">
<stop stop-color="#11375F"/>
<stop offset="1" stop-color="#2365AA"/>
</linearGradient>
<linearGradient id="paint6_linear_6849_2676" x1="13.9633" y1="2.31448" x2="13.9633" y2="3.27973" gradientUnits="userSpaceOnUse">
<stop stop-color="#11375F"/>
<stop offset="1" stop-color="#2365AA"/>
</linearGradient>
<clipPath id="clip0_6849_2676">
<rect width="16" height="16" fill="white"/>
</clipPath>
</defs>
</svg>
