<svg width="15" height="17" viewBox="0 0 15 17" fill="none" xmlns="http://www.w3.org/2000/svg">
<g id="Group">
<path id="Vector" d="M2.25621 0C1.40253 0 0.708008 0.694525 0.708008 1.5482V15.0035C0.708008 15.8572 1.40253 16.5517 2.25621 16.5517H6.71052V0H2.25621Z" fill="url(#paint0_linear_6821_13753)"/>
<path id="Vector_2" d="M2.41305 0.864258C1.98258 0.864258 1.63037 1.21647 1.63037 1.64694V3.47875C1.63037 3.90922 1.98258 4.26143 2.41305 4.26143C2.84353 4.26143 3.19573 3.90922 3.19573 3.47875V1.64694C3.19573 1.21647 2.84353 0.864258 2.41305 0.864258Z" fill="url(#paint1_linear_6821_13753)"/>
<path id="Vector_3" d="M12.5225 0H6.71031C5.85663 0 5.16211 0.694525 5.16211 1.5482V15.0035C5.16211 15.8572 5.85663 16.5517 6.71031 16.5517H12.5225C13.3762 16.5517 14.0707 15.8572 14.0707 15.0035V1.5482C14.0707 0.694525 13.3762 0 12.5225 0Z" fill="url(#paint2_linear_6821_13753)"/>
<path id="Vector_4" d="M13.2131 15.0032C13.2131 15.3845 12.904 15.6936 12.5227 15.6936H6.71044C6.32914 15.6936 6.02002 15.3845 6.02002 15.0032V1.54787C6.02002 1.16657 6.32914 0.857454 6.71044 0.857454H7.4348C7.50332 0.857454 7.56904 0.884674 7.61749 0.933127C7.66594 0.981579 7.69316 1.04729 7.69316 1.11582V1.27965C7.69316 1.49948 7.873 1.67932 8.09283 1.67932H11.1402C11.3601 1.67932 11.5399 1.49948 11.5399 1.27965V1.04269C11.5399 0.993554 11.5594 0.946431 11.5942 0.911686C11.6289 0.876941 11.676 0.857422 11.7252 0.857422H12.5227C12.904 0.857422 13.2131 1.16654 13.2131 1.54784V15.0032Z" fill="url(#paint3_linear_6821_13753)"/>
<path id="Vector_5" d="M10.6213 1.10725H9.31715C9.2509 1.10725 9.18736 1.08093 9.14052 1.03409C9.09367 0.987241 9.06735 0.923705 9.06735 0.857455C9.06735 0.791205 9.09367 0.727669 9.14052 0.680823C9.18736 0.633978 9.2509 0.60766 9.31715 0.60766H10.6213C10.6876 0.60766 10.7511 0.633978 10.798 0.680823C10.8448 0.727669 10.8711 0.791205 10.8711 0.857455C10.8711 0.923705 10.8448 0.987241 10.798 1.03409C10.7511 1.08093 10.6876 1.10725 10.6213 1.10725ZM8.39291 1.06516C8.21407 0.947616 8.25742 0.660257 8.48248 0.612541C8.63559 0.580957 8.78126 0.699535 8.78126 0.857326C8.78126 0.973349 8.70118 1.07735 8.58008 1.10247C8.56411 1.10544 8.44376 1.09956 8.39291 1.06516ZM2.27372 1.88715C2.15495 1.80601 2.13042 1.65103 2.2048 1.54076C2.33699 1.33998 2.66207 1.42901 2.66207 1.67932C2.66207 1.80013 2.57521 1.90277 2.46122 1.9241C2.43009 1.93063 2.33133 1.92501 2.27372 1.88715Z" fill="url(#paint4_linear_6821_13753)"/>
<path id="Vector_6" d="M2.27372 2.77077C2.15495 2.68963 2.13042 2.53465 2.2048 2.42438C2.30838 2.2633 2.56309 2.27775 2.6431 2.46735C2.68092 2.55673 2.66217 2.66645 2.58914 2.73945C2.5296 2.799 2.3762 2.83811 2.27372 2.77077Z" fill="url(#paint5_linear_6821_13753)"/>
<path id="Vector_7" d="M2.27455 3.65222C2.10971 3.54389 2.13218 3.29235 2.31751 3.21392C2.57917 3.11167 2.77724 3.43401 2.58997 3.62125C2.52502 3.68619 2.38543 3.72799 2.27455 3.65222Z" fill="url(#paint6_linear_6821_13753)"/>
</g>
<defs>
<linearGradient id="paint0_linear_6821_13753" x1="-10.2422" y1="-30.4727" x2="28.7069" y2="-5.48897" gradientUnits="userSpaceOnUse">
<stop offset="0.662957" stop-color="#F6BB91" stop-opacity="0.549561"/>
<stop offset="0.907674" stop-color="white"/>
</linearGradient>
<linearGradient id="paint1_linear_6821_13753" x1="2.41309" y1="0.888787" x2="2.41309" y2="4.25705" gradientUnits="userSpaceOnUse">
<stop stop-color="#E0B181"/>
<stop offset="1" stop-color="#BE9367"/>
</linearGradient>
<linearGradient id="paint2_linear_6821_13753" x1="9.61661" y1="0.119511" x2="9.61661" y2="16.5304" gradientUnits="userSpaceOnUse">
<stop stop-color="#E0B181"/>
<stop offset="1" stop-color="#BE9367"/>
</linearGradient>
<linearGradient id="paint3_linear_6821_13753" x1="-7.10205" y1="-26.4569" x2="30.443" y2="4.54454" gradientUnits="userSpaceOnUse">
<stop offset="0.404667" stop-color="#F6BB91" stop-opacity="0.549561"/>
<stop offset="0.876292" stop-color="white"/>
</linearGradient>
<linearGradient id="paint4_linear_6821_13753" x1="-13.7241" y1="-1.82096" x2="-13.1242" y2="4.92438" gradientUnits="userSpaceOnUse">
<stop offset="0.565205" stop-color="#F6BB91" stop-opacity="0.549561"/>
<stop offset="0.907674" stop-color="white"/>
</linearGradient>
<linearGradient id="paint5_linear_6821_13753" x1="1.25128" y1="1.40642" x2="2.35255" y2="3.30815" gradientUnits="userSpaceOnUse">
<stop offset="0.565205" stop-color="#F6BB91" stop-opacity="0.549561"/>
<stop offset="0.907674" stop-color="white"/>
</linearGradient>
<linearGradient id="paint6_linear_6821_13753" x1="1.25114" y1="2.27654" x2="2.37127" y2="4.19053" gradientUnits="userSpaceOnUse">
<stop offset="0.565205" stop-color="#F6BB91" stop-opacity="0.549561"/>
<stop offset="0.907674" stop-color="white"/>
</linearGradient>
</defs>
</svg>
