<svg width="19" height="18" viewBox="0 0 19 18" fill="none" xmlns="http://www.w3.org/2000/svg">
<g clip-path="url(#clip0_3069_230200)">
<path d="M15.777 16.961C15.2311 17.5504 14.457 17.8889 13.6535 17.8889H5.34669C4.54315 17.8889 3.76912 17.5504 3.22312 16.961C2.67714 16.3717 2.39909 15.574 2.46055 14.7726L3.25471 4.76601C3.30398 4.12285 3.8493 3.61816 4.49558 3.61816H14.5046C15.1509 3.61816 15.6962 4.12285 15.7454 4.7674L16.5393 14.7712C16.6011 15.574 16.323 16.3717 15.777 16.961Z" fill="url(#paint0_linear_3069_230200)"/>
<path d="M12.9359 3.54796V5.94192C12.9359 6.22966 12.703 6.46258 12.4152 6.46258C12.1278 6.46258 11.8946 6.22966 11.8946 5.94192V3.54796C11.8946 2.22723 10.8203 1.15261 9.49955 1.15261H9.49504C8.17639 1.15504 7.10455 2.22862 7.10455 3.54796V5.94192C7.10455 6.22966 6.87129 6.46258 6.58389 6.46258C6.29615 6.46258 6.06323 6.22966 6.06323 5.94192V3.54796C6.06323 1.65452 7.60226 0.113759 9.495 0.111328H9.49952C11.3944 0.111328 12.9359 1.65313 12.9359 3.54796Z" fill="url(#paint1_linear_3069_230200)"/>
<path fill-rule="evenodd" clip-rule="evenodd" d="M9.49989 7.22266C9.99081 7.22266 10.3888 7.62063 10.3888 8.11155V9.88932H12.1666C12.6575 9.88932 13.0554 10.2873 13.0554 10.7782C13.0554 11.2691 12.6575 11.6671 12.1666 11.6671H10.3888V13.4449C10.3888 13.9358 9.99081 14.3338 9.49989 14.3338C9.00897 14.3338 8.611 13.9358 8.611 13.4449V11.6671H6.83322C6.34231 11.6671 5.94434 11.2691 5.94434 10.7782C5.94434 10.2873 6.34231 9.88932 6.83322 9.88932H8.611V8.11155C8.611 7.62063 9.00897 7.22266 9.49989 7.22266Z" fill="url(#paint2_linear_3069_230200)"/>
</g>
<defs>
<linearGradient id="paint0_linear_3069_230200" x1="9.50025" y1="3.7212" x2="9.50025" y2="17.8705" gradientUnits="userSpaceOnUse">
<stop stop-color="#E0B181"/>
<stop offset="1" stop-color="#BE9367"/>
</linearGradient>
<linearGradient id="paint1_linear_3069_230200" x1="-6.47429" y1="-11.5817" x2="8.86511" y2="21.9646" gradientUnits="userSpaceOnUse">
<stop offset="0.402843" stop-color="#F6BB91"/>
<stop offset="0.907674" stop-color="white"/>
</linearGradient>
<linearGradient id="paint2_linear_3069_230200" x1="-7.02822" y1="-5.86934" x2="8.86995" y2="20.2853" gradientUnits="userSpaceOnUse">
<stop offset="0.402843" stop-color="#F6BB91" stop-opacity="0.549561"/>
<stop offset="0.907674" stop-color="white"/>
</linearGradient>
<clipPath id="clip0_3069_230200">
<rect width="17.7778" height="17.7778" fill="white" transform="translate(0.611084 0.111328)"/>
</clipPath>
</defs>
</svg>
