<svg width="16" height="17" viewBox="0 0 16 17" fill="none" xmlns="http://www.w3.org/2000/svg">
<g id="Group">
<path id="Vector" d="M11.399 16.5512H1.85717C0.963409 16.5512 0.236328 15.8241 0.236328 14.9303V1.62084C0.236296 0.727114 0.963409 0 1.85717 0H11.399C12.2928 0 13.0199 0.727114 13.0199 1.62084V14.9303C13.0199 15.8241 12.2928 16.5512 11.399 16.5512Z" fill="url(#paint0_linear_6821_13707)"/>
<path id="Vector_2" d="M1.85757 2.19434C1.66742 2.19434 1.5127 2.34902 1.5127 2.53921V13.6541C1.5127 13.8443 1.66742 13.999 1.85757 13.999H11.3994C11.5896 13.999 11.7443 13.8443 11.7443 13.6541V2.53921C11.7443 2.34902 11.5896 2.19434 11.3994 2.19434H1.85757Z" fill="url(#paint1_linear_6821_13707)"/>
<path id="Vector_3" d="M5.83878 1.29173C5.74202 1.19501 5.74047 1.03673 5.83878 0.938392C5.93537 0.841732 6.09439 0.840924 6.19179 0.938392C6.28971 1.03634 6.28894 1.19462 6.19179 1.29173C6.09416 1.38939 5.93521 1.3882 5.83878 1.29173ZM7.72736 1.36483H6.90717C6.84162 1.36377 6.77911 1.33699 6.73312 1.29026C6.68714 1.24353 6.66136 1.18059 6.66136 1.11503C6.66136 1.04947 6.68714 0.986533 6.73312 0.939802C6.77911 0.893071 6.84162 0.866289 6.90717 0.865234H7.72736C7.79361 0.865234 7.85714 0.891552 7.90399 0.938398C7.95084 0.985244 7.97715 1.04878 7.97715 1.11503C7.97715 1.18128 7.95084 1.24482 7.90399 1.29166C7.85714 1.33851 7.79361 1.36483 7.72736 1.36483ZM7.13909 15.2819C7.13909 15.5644 6.91015 15.7932 6.6278 15.7932C6.34541 15.7932 6.1165 15.5643 6.1165 15.2819C6.1165 14.9996 6.34545 14.7706 6.6278 14.7706C6.91015 14.7706 7.13909 14.9996 7.13909 15.2819Z" fill="url(#paint2_linear_6821_13707)"/>
<path id="Vector_4" d="M15.3909 0.305055C15.1731 -0.291649 14.9736 0.149171 14.9252 0.274376L14.4336 1.62124V15.8321C14.4336 16.2292 14.7554 16.551 15.1525 16.551C15.5494 16.551 15.8713 16.2292 15.8713 15.8321V1.62124L15.3909 0.305055Z" fill="url(#paint3_linear_6821_13707)"/>
<path id="Vector_5" d="M14.4336 13.1133H15.8712V14.4717H14.4336V13.1133Z" fill="url(#paint4_linear_6821_13707)"/>
</g>
<defs>
<linearGradient id="paint0_linear_6821_13707" x1="6.62838" y1="0.119507" x2="6.62838" y2="16.5299" gradientUnits="userSpaceOnUse">
<stop stop-color="#E0B181"/>
<stop offset="1" stop-color="#BE9367"/>
</linearGradient>
<linearGradient id="paint1_linear_6821_13707" x1="6.62872" y1="2.27957" x2="6.62872" y2="22.0687" gradientUnits="userSpaceOnUse">
<stop stop-color="#FFE5CB"/>
<stop offset="1" stop-color="#EEC093"/>
</linearGradient>
<linearGradient id="paint2_linear_6821_13707" x1="6.87144" y1="0.973021" x2="6.87144" y2="15.774" gradientUnits="userSpaceOnUse">
<stop stop-color="#FFE5CB"/>
<stop offset="1" stop-color="#EEC093"/>
</linearGradient>
<linearGradient id="paint3_linear_6821_13707" x1="15.1525" y1="0.119506" x2="15.1525" y2="16.5297" gradientUnits="userSpaceOnUse">
<stop stop-color="#E0B181"/>
<stop offset="1" stop-color="#BE9367"/>
</linearGradient>
<linearGradient id="paint4_linear_6821_13707" x1="15.1524" y1="13.1231" x2="15.1524" y2="14.4699" gradientUnits="userSpaceOnUse">
<stop stop-color="#FFE5CB"/>
<stop offset="1" stop-color="#EEC093"/>
</linearGradient>
</defs>
</svg>
