<svg width="24" height="24" viewBox="0 0 24 24" fill="none" xmlns="http://www.w3.org/2000/svg">
<g id="Frame 1000006234">
<path id="Vector" d="M0 4.80029V19.2003C0 20.8805 0 21.7201 0.32698 22.3618C0.614601 22.9263 1.07321 23.3857 1.6377 23.6733C2.2788 24 3.11849 24 4.79537 24H19.2046C20.8815 24 21.72 24 22.3611 23.6733C22.9256 23.3857 23.3857 22.9263 23.6733 22.3618C24 21.7207 24 20.8822 24 19.2054V4.79537C24 3.11849 24 2.2788 23.6733 1.6377C23.3857 1.07321 22.9256 0.614601 22.3611 0.32698C21.7194 0 20.8805 0 19.2003 0H4.80029C3.12014 0 2.27943 0 1.6377 0.32698C1.07321 0.614601 0.614601 1.07321 0.32698 1.6377C0 2.27943 0 3.12014 0 4.80029Z" fill="#102841"/>
<path id="Vector_2" d="M8.40039 11.4004L11.2006 14.4004L16.8004 8.40039" stroke="white" stroke-width="2.4" stroke-linecap="round" stroke-linejoin="round"/>
</g>
</svg>
