<svg width="17" height="20" viewBox="0 0 17 20" fill="none" xmlns="http://www.w3.org/2000/svg">
<g id="icons8-tiktok (4) 1" clip-path="url(#clip0_6851_85727)">
<path id="Vector" d="M-1.70078 -5C-4.49723 -5 -6.80078 -2.74162 -6.80078 0V20C-6.80078 22.7416 -4.49723 25 -1.70078 25H18.6992C21.4957 25 23.7992 22.7416 23.7992 20V0C23.7992 -2.74162 21.4957 -5 18.6992 -5H-1.70078ZM-1.70078 -1.66667H18.6992C19.6598 -1.66667 20.3992 -0.941717 20.3992 0V20C20.3992 20.9417 19.6598 21.6667 18.6992 21.6667H-1.70078C-2.66133 21.6667 -3.40078 20.9417 -3.40078 20V0C-3.40078 -0.941717 -2.66133 -1.66667 -1.70078 -1.66667ZM8.49922 1.66667V13.3333C8.49922 14.275 7.75977 15 6.79922 15C5.83867 15 5.09922 14.275 5.09922 13.3333C5.09922 12.3916 5.83867 11.6667 6.79922 11.6667V8.33333C4.00277 8.33333 1.69922 10.5917 1.69922 13.3333C1.69922 16.0749 4.00277 18.3333 6.79922 18.3333C9.59567 18.3333 11.8992 16.0749 11.8992 13.3333V7.05404C12.9467 7.78557 14.0397 8.33333 15.2992 8.33333V5C15.2188 5 14.0458 4.6349 13.2273 3.93555C12.4089 3.2362 11.8992 2.35832 11.8992 1.66667H8.49922Z" fill="url(#paint0_linear_6851_85727)"/>
</g>
<defs>
<linearGradient id="paint0_linear_6851_85727" x1="8.49987" y1="-4.78339" x2="8.49987" y2="45.5083" gradientUnits="userSpaceOnUse">
<stop stop-color="#FFC78D"/>
<stop offset="0.434814" stop-color="#DA6E00"/>
<stop offset="1" stop-color="#FFDEBD"/>
</linearGradient>
<clipPath id="clip0_6851_85727">
<rect width="17" height="20" fill="white"/>
</clipPath>
</defs>
</svg>
