<svg width="16" height="16" viewBox="0 0 16 16" fill="none" xmlns="http://www.w3.org/2000/svg">
<g clip-path="url(#clip0_6849_2356)">
<path d="M6.54765 4.61064L12.0601 7.53701C12.1352 7.57685 12.1979 7.63636 12.2417 7.70917C12.2855 7.78198 12.3086 7.86533 12.3086 7.95028L12.3086 12.559C12.3086 12.7045 12.2683 12.8471 12.1922 12.9711C12.116 13.0951 12.007 13.1956 11.8773 13.2614L6.47165 16.0031C6.38662 16.0463 6.29261 16.0688 6.19726 16.0688C6.10191 16.0688 6.00791 16.0463 5.92288 16.0031L0.517193 13.2614C0.38744 13.1956 0.278455 13.0951 0.202324 12.9711C0.126192 12.8471 0.0858898 12.7045 0.085887 12.559V7.95028C0.0858793 7.86532 0.109008 7.78196 0.152793 7.70915C0.196577 7.63635 0.259363 7.57683 0.334412 7.53701L5.84683 4.61064C5.95476 4.55338 6.07507 4.52344 6.19724 4.52344C6.31941 4.52344 6.43972 4.55338 6.54765 4.61064Z" fill="url(#paint0_linear_6849_2356)"/>
<path d="M6.19727 16.066C6.10319 16.066 6.00907 16.0442 5.92288 16.0004L0.517196 13.2587C0.387443 13.1928 0.278458 13.0924 0.202326 12.9684C0.126194 12.8444 0.0858908 12.7017 0.0858879 12.5562V7.94754C0.0861726 7.87258 0.104531 7.79878 0.139404 7.73242L6.19727 10.9589V16.066Z" fill="url(#paint1_linear_6849_2356)"/>
<path d="M6.19722 10.959L12.255 7.73242C12.2899 7.79877 12.3083 7.87257 12.3086 7.94754L12.3086 12.5562C12.3086 12.7017 12.2683 12.8444 12.1922 12.9684C12.116 13.0924 12.007 13.1928 11.8773 13.2587L6.47165 16.0004C6.38662 16.0435 6.29261 16.066 6.19726 16.066L6.19722 10.959Z" fill="url(#paint2_linear_6849_2356)"/>
<path d="M4.03716 5.57031L10.168 8.83527V10.7352C10.168 10.7844 10.1546 10.8327 10.1293 10.8749C10.1039 10.917 10.0676 10.9516 10.0242 10.9747L9.55093 10.9219L8.95875 11.5426C8.8742 11.5876 8.77215 11.5264 8.77215 11.4306V9.60033L2.63181 6.31637L4.03716 5.57031Z" fill="url(#paint3_linear_6849_2356)"/>
<path d="M10.1699 8.84375L10.1693 10.7285C10.1693 10.7777 10.1559 10.826 10.1306 10.8682C10.1053 10.9104 10.069 10.9449 10.0256 10.9681L9.55224 10.9153L8.9601 11.5359C8.87555 11.581 8.7735 11.5197 8.7735 11.4239V10.4489L8.76371 9.59276L10.1699 8.84375Z" fill="url(#paint4_linear_6849_2356)"/>
<g clip-path="url(#clip1_6849_2356)">
<path fill-rule="evenodd" clip-rule="evenodd" d="M16.0711 6.27196C16.0711 7.3269 15.6993 8.06856 15.0989 8.41416C15.062 8.43768 15.0242 8.45963 14.9854 8.47999C14.9428 8.5075 14.8989 8.5329 14.8538 8.55616L14.8325 8.56812C14.7994 8.58973 14.7657 8.61006 14.7311 8.62911C14.7174 8.63721 14.7036 8.64511 14.6897 8.6528C14.6681 8.66597 14.6462 8.67862 14.6241 8.69074C14.598 8.70655 14.5714 8.7216 14.5445 8.73588L14.5213 8.74921C14.4922 8.76798 14.4625 8.78576 14.4323 8.80256C14.4228 8.80805 14.4132 8.81344 14.4035 8.81873C14.3919 8.82559 14.3802 8.83228 14.3683 8.83883C14.3576 8.84543 14.3467 8.8519 14.3358 8.85823C14.3209 8.86747 14.3059 8.87646 14.2907 8.88519C14.2762 8.89382 14.2615 8.9022 14.2468 8.91036C14.2331 8.91846 14.2192 8.92636 14.2053 8.93404C14.192 8.94219 14.1785 8.95014 14.1649 8.95789L14.159 8.96149C14.087 9.00655 14.0116 9.04569 13.9329 9.07877C13.35 9.33304 12.5864 9.25075 11.7516 8.76873C9.92612 7.71478 8.44141 5.14257 8.44141 3.03554C8.44141 1.97169 8.81959 1.22643 9.4289 0.884666C9.45164 0.870561 9.47473 0.857044 9.49816 0.84412L9.51437 0.834659C9.52678 0.827274 9.53928 0.82006 9.55189 0.813019C9.56616 0.804477 9.58057 0.796162 9.59511 0.788076C9.61158 0.777941 9.62823 0.768114 9.64506 0.758595C9.65973 0.749712 9.67454 0.741072 9.6895 0.732675C9.69971 0.726739 9.70998 0.720919 9.72032 0.715214C9.73348 0.707433 9.74674 0.699844 9.76012 0.692449C9.7864 0.675834 9.81315 0.66001 9.84036 0.644986C9.87508 0.622971 9.91062 0.60234 9.94695 0.58311C9.95872 0.57621 9.97058 0.569463 9.98253 0.562871L9.99182 0.557415C10.0237 0.536879 10.0563 0.517518 10.0895 0.499345C10.1148 0.484036 10.1404 0.469443 10.1665 0.455573L10.1724 0.45226C10.192 0.440022 10.2118 0.42822 10.2319 0.416858C10.2642 0.396664 10.2972 0.37766 10.3309 0.35986C10.3725 0.333766 10.4152 0.309646 10.4591 0.28753C11.0552 -0.0351614 11.8672 0.0227561 12.761 0.538772C14.5864 1.59273 16.0711 4.16494 16.0711 6.27196Z" fill="url(#paint5_linear_6849_2356)"/>
<path d="M11.732 8.78068C9.90659 7.72761 8.42188 5.1554 8.42188 3.04749C8.42188 0.939585 9.90659 0.0824757 11.732 1.13643C13.5575 2.19038 15.0422 4.76259 15.0422 6.86962C15.0422 8.97752 13.5575 9.83463 11.732 8.78068Z" fill="url(#paint6_linear_6849_2356)"/>
<path fill-rule="evenodd" clip-rule="evenodd" d="M12.0046 4.26757L11.4017 3.91938C11.3802 3.90722 11.3676 3.8753 11.3735 3.85793L11.4034 3.84054C11.4078 3.83797 11.412 3.83513 11.4161 3.83203L11.4551 3.80929C11.4588 3.80716 11.4623 3.80484 11.4657 3.80235C11.4748 3.79689 11.4829 3.79029 11.4902 3.78268L11.4941 3.77878C11.5661 3.71002 11.5581 3.54828 11.4717 3.39847C11.3765 3.2339 11.2229 3.14481 11.1278 3.19989L10.5704 3.52292C10.5666 3.52515 10.5629 3.5276 10.5593 3.53026L10.545 3.53854L10.5416 3.54061L10.5216 3.55221C10.518 3.55429 10.5146 3.55655 10.5112 3.55898L10.5084 3.56076L10.4962 3.56784C10.4937 3.56931 10.4912 3.57086 10.4888 3.57251L10.4766 3.57956C10.4311 3.60608 10.4053 3.66252 10.4053 3.73733C10.4053 3.81213 10.4311 3.89782 10.4766 3.97739L11.0354 4.94441C11.0578 4.98318 11.085 5.0199 11.1142 5.0505C11.1435 5.08178 11.1754 5.10695 11.2074 5.12531C11.2588 5.15495 11.3097 5.16573 11.3527 5.1535C11.3648 5.15088 11.3763 5.14653 11.3871 5.14035L11.3942 5.13593C11.3978 5.13433 11.4013 5.13255 11.4047 5.13059C11.4102 5.12743 11.4153 5.12386 11.4202 5.11991L11.4237 5.1174L11.4281 5.11496C11.4318 5.11283 11.4354 5.11052 11.4388 5.10802C11.445 5.10425 11.4509 5.09993 11.4563 5.0951L11.4565 5.09934C11.4602 5.09721 11.4637 5.09489 11.4671 5.0924C11.4761 5.08694 11.4843 5.08034 11.4916 5.07274L11.4955 5.06883C11.5674 5.00007 11.5594 4.83833 11.4731 4.68852L11.4343 4.62108L11.4338 4.61024L11.9115 4.88661C12.1617 5.03146 12.3656 5.38441 12.3656 5.67343V5.69179C12.3656 5.8063 12.3336 5.89392 12.2794 5.949C12.2031 5.97193 12.1081 5.95691 12.0053 5.89764L10.8708 5.24208C10.7955 5.19871 10.7283 5.19918 10.6837 5.23528C10.6761 5.2387 10.6689 5.24291 10.6622 5.24789L10.6599 5.24913C10.6526 5.25244 10.6457 5.25648 10.6392 5.26123C10.6368 5.26268 10.6345 5.26422 10.6322 5.26584C10.6268 5.26843 10.6216 5.27143 10.6167 5.27482L10.6127 5.27756C10.5641 5.30088 10.5337 5.35717 10.5337 5.43949C10.5337 5.59454 10.6425 5.78359 10.7771 5.86112L11.9115 6.51669C12.1169 6.63516 12.307 6.66856 12.4617 6.62849C12.5062 6.61778 12.5478 6.60108 12.586 6.57868C12.6027 6.56991 12.6187 6.56011 12.6342 6.5493C12.6507 6.54082 12.6666 6.53133 12.6819 6.52086C12.7093 6.50308 12.7348 6.48222 12.7583 6.45841L12.7622 6.45454C12.8773 6.34079 12.9454 6.15746 12.9454 5.91669V5.89832C12.9454 5.2992 12.5232 4.56815 12.0053 4.26893L12.0046 4.26757ZM11.4252 4.60526L11.4343 4.62108L11.4386 4.7149L11.4369 4.71196L11.3508 4.56225L11.4252 4.60526ZM11.4017 3.91938L11.4038 3.96491L11.3656 3.94282C11.3477 3.93275 11.336 3.90913 11.3359 3.89144L11.4017 3.91938Z" fill="url(#paint7_linear_6849_2356)"/>
<path d="M11.906 4.32812L11.3031 3.97993C11.2766 3.96497 11.2636 3.92009 11.282 3.90921L11.3731 3.85616C11.4682 3.80108 11.4676 3.62291 11.3731 3.45901C11.2779 3.29444 11.1243 3.20536 11.0291 3.26044L10.4718 3.58346C10.4262 3.60998 10.4004 3.66643 10.4004 3.74123C10.4004 3.81604 10.4262 3.90173 10.4718 3.98129L11.0305 4.94832C11.0529 4.98708 11.0801 5.02381 11.1093 5.05441C11.1386 5.08569 11.1705 5.11085 11.2025 5.12921C11.265 5.16526 11.3269 5.17342 11.3744 5.14621C11.4696 5.09113 11.4689 4.91296 11.3744 4.74907L11.2813 4.58721C11.2623 4.55457 11.2759 4.52533 11.3024 4.54097L11.9067 4.89052C12.1568 5.03537 12.3607 5.38831 12.3607 5.67733V5.69569C12.3607 5.98471 12.1568 6.10236 11.9067 5.95819L10.7722 5.30263C10.6376 5.2251 10.5289 5.28766 10.5289 5.4434C10.5289 5.59845 10.6376 5.7875 10.7722 5.86503L11.9067 6.52059C12.4253 6.81981 12.8467 6.57636 12.8467 5.97723V5.95887C12.8467 5.35975 12.4246 4.6287 11.9067 4.32948L11.906 4.32812Z" fill="url(#paint8_linear_6849_2356)"/>
</g>
</g>
<defs>
<linearGradient id="paint0_linear_6849_2356" x1="6.19698" y1="4.62656" x2="2.24533" y2="20.0433" gradientUnits="userSpaceOnUse">
<stop stop-color="#FFE5CB"/>
<stop offset="0.408938" stop-color="#EEC093"/>
</linearGradient>
<linearGradient id="paint1_linear_6849_2356" x1="3.14145" y1="7.81236" x2="-2.75362" y2="25.4603" gradientUnits="userSpaceOnUse">
<stop offset="0.173176" stop-color="#FFE5CB"/>
<stop offset="0.60834" stop-color="#EEC093"/>
</linearGradient>
<linearGradient id="paint2_linear_6849_2356" x1="9.25277" y1="7.81236" x2="3.35775" y2="25.4603" gradientUnits="userSpaceOnUse">
<stop stop-color="#FFE5CB"/>
<stop offset="0.408938" stop-color="#EEC093"/>
</linearGradient>
<linearGradient id="paint3_linear_6849_2356" x1="5.19291" y1="5.5703" x2="5.19291" y2="10.7025" gradientUnits="userSpaceOnUse">
<stop stop-color="#17395C"/>
<stop offset="1" stop-color="#2365AA" stop-opacity="0.89"/>
</linearGradient>
<linearGradient id="paint4_linear_6849_2356" x1="9.24099" y1="8.84855" x2="9.24099" y2="10.7053" gradientUnits="userSpaceOnUse">
<stop stop-color="#17395C"/>
<stop offset="1" stop-color="#2365AA" stop-opacity="0.89"/>
</linearGradient>
<linearGradient id="paint5_linear_6849_2356" x1="13.3825" y1="2.1236" x2="7.83474" y2="11.7331" gradientUnits="userSpaceOnUse">
<stop stop-color="#FFE5CB"/>
<stop offset="1" stop-color="#EEC093"/>
</linearGradient>
<linearGradient id="paint6_linear_6849_2356" x1="7.67281" y1="-0.823438" x2="13.5914" y2="7.58878" gradientUnits="userSpaceOnUse">
<stop offset="0.155949" stop-color="#17395C"/>
<stop offset="0.764672" stop-color="#2365AA" stop-opacity="0.89"/>
</linearGradient>
<linearGradient id="paint7_linear_6849_2356" x1="11.0837" y1="4.97125" x2="16.6347" y2="1.77405" gradientUnits="userSpaceOnUse">
<stop stop-color="#17395C"/>
<stop offset="1" stop-color="#2365AA" stop-opacity="0.89"/>
</linearGradient>
<linearGradient id="paint8_linear_6849_2356" x1="10.8637" y1="5.08098" x2="11.6236" y2="8.97585" gradientUnits="userSpaceOnUse">
<stop stop-color="#FFEEDD"/>
<stop offset="1" stop-color="#EEC093"/>
</linearGradient>
<clipPath id="clip0_6849_2356">
<rect width="16" height="16" fill="white"/>
</clipPath>
<clipPath id="clip1_6849_2356">
<rect width="7.65043" height="9.14573" fill="white" transform="translate(8.4209 0.0859375)"/>
</clipPath>
</defs>
</svg>
