<svg width="16" height="16" viewBox="0 0 16 16" fill="none" xmlns="http://www.w3.org/2000/svg">
<path d="M13.6491 15.1648C13.1578 15.6953 12.4611 15.9999 11.738 15.9999H4.26183C3.53864 15.9999 2.84201 15.6953 2.35061 15.1648C1.85923 14.6344 1.60898 13.9165 1.6643 13.1952L2.37905 4.18931C2.42339 3.61047 2.91417 3.15625 3.49583 3.15625H12.5039C13.0856 3.15625 13.5764 3.61047 13.6207 4.19056L14.3351 13.194C14.3908 13.9165 14.1405 14.6344 13.6491 15.1648Z" fill="url(#paint0_linear_6849_2338)"/>
<path d="M11.0921 3.09297V5.24753C11.0921 5.5065 10.8825 5.71613 10.6235 5.71613C10.3649 5.71613 10.1549 5.5065 10.1549 5.24753V3.09297C10.1549 1.90431 9.18808 0.937156 7.99943 0.937156H7.99536C6.80858 0.939344 5.84393 1.90556 5.84393 3.09297V5.24753C5.84393 5.5065 5.63399 5.71613 5.37533 5.71613C5.11636 5.71613 4.90674 5.5065 4.90674 5.24753V3.09297C4.90674 1.38888 6.29186 0.0021875 7.99533 0H7.99939C9.7048 0 11.0921 1.38762 11.0921 3.09297Z" fill="url(#paint1_linear_6849_2338)"/>
<path fill-rule="evenodd" clip-rule="evenodd" d="M7.9998 6.40039C8.44163 6.40039 8.7998 6.75856 8.7998 7.20039V8.80039H10.3998C10.8416 8.80039 11.1998 9.15856 11.1998 9.60039C11.1998 10.0422 10.8416 10.4004 10.3998 10.4004H8.7998V12.0004C8.7998 12.4422 8.44163 12.8004 7.9998 12.8004C7.55798 12.8004 7.1998 12.4422 7.1998 12.0004V10.4004H5.5998C5.15798 10.4004 4.7998 10.0422 4.7998 9.60039C4.7998 9.15856 5.15798 8.80039 5.5998 8.80039H7.1998V7.20039C7.1998 6.75856 7.55798 6.40039 7.9998 6.40039Z" fill="url(#paint2_linear_6849_2338)"/>
<defs>
<linearGradient id="paint0_linear_6849_2338" x1="1.65674" y1="3.15625" x2="15.7431" y2="4.93971" gradientUnits="userSpaceOnUse">
<stop stop-color="#102841"/>
<stop offset="1" stop-color="#1359A1"/>
</linearGradient>
<linearGradient id="paint1_linear_6849_2338" x1="-6.37703" y1="-10.5237" x2="7.42843" y2="19.6679" gradientUnits="userSpaceOnUse">
<stop offset="0.402843" stop-color="#F6BB91"/>
<stop offset="0.907674" stop-color="white"/>
</linearGradient>
<linearGradient id="paint2_linear_6849_2338" x1="-6.87549" y1="-5.38241" x2="7.43286" y2="18.1568" gradientUnits="userSpaceOnUse">
<stop offset="0.402843" stop-color="#F6BB91" stop-opacity="0.549561"/>
<stop offset="0.907674" stop-color="white"/>
</linearGradient>
</defs>
</svg>
