<svg width="18" height="15" viewBox="0 0 18 15" fill="none" xmlns="http://www.w3.org/2000/svg">
<g id="Group">
<path id="Vector" d="M3.93826 3.73838V1.37343C3.93826 1.17312 3.77588 1.01074 3.57558 1.01074H2.36708C2.16678 1.01074 2.00439 1.17312 2.00439 1.37343V3.73838" fill="url(#paint0_linear_6821_13783)"/>
<path id="Vector_2" d="M17.2216 4.16942V13.0178C17.2216 13.6245 16.7298 14.1163 16.1232 14.1163H1.76841C1.16175 14.1163 0.669922 13.6245 0.669922 13.0178V4.16942C0.669922 3.56276 1.16175 3.07093 1.76841 3.07093H3.9405C4.40835 3.07093 4.82518 2.77468 4.97854 2.33254L5.3795 1.17527C5.4543 0.959532 5.59446 0.772456 5.7805 0.640057C5.96653 0.507659 6.1892 0.436517 6.41754 0.436523H12.8253C13.2932 0.436523 13.7096 0.733097 13.863 1.17527L14.2643 2.33254C14.3391 2.54819 14.4792 2.73519 14.6652 2.86752C14.8511 2.99986 15.0737 3.07096 15.302 3.07093H16.1231C16.7298 3.07093 17.2216 3.56276 17.2216 4.16942Z" fill="url(#paint1_linear_6821_13783)"/>
<path id="Vector_3" d="M17.2216 6.06055V13.018C17.2216 13.6247 16.7298 14.1165 16.1232 14.1165H1.76841C1.16175 14.1165 0.669922 13.6247 0.669922 13.018V6.06055H17.2216Z" fill="url(#paint2_linear_6821_13783)"/>
<path id="Vector_4" d="M8.94573 12.9387C11.4315 12.9387 13.4466 10.956 13.4466 8.51034C13.4466 6.06465 11.4315 4.08203 8.94573 4.08203C6.45995 4.08203 4.44482 6.06465 4.44482 8.51034C4.44482 10.956 6.45995 12.9387 8.94573 12.9387Z" fill="url(#paint3_linear_6821_13783)"/>
<path id="Vector_5" d="M8.94541 13.0842C6.38357 13.0842 4.29932 10.9999 4.29932 8.43809C4.29932 5.87624 6.38357 3.79199 8.94541 3.79199C11.5073 3.79199 13.5915 5.8762 13.5915 8.43809C13.5915 11 11.5073 13.0842 8.94541 13.0842ZM8.94541 4.4666C6.75554 4.4666 4.97392 6.24822 4.97392 8.43809C4.97392 10.628 6.75554 12.4096 8.94541 12.4096C11.1353 12.4096 12.9169 10.628 12.9169 8.43809C12.9169 6.24822 11.1353 4.4666 8.94541 4.4666Z" fill="url(#paint4_linear_6821_13783)"/>
<path id="Vector_6" d="M8.94508 7.20996C8.22877 7.20996 7.646 7.79273 7.646 8.50908C7.646 9.22542 8.22877 9.80816 8.94508 9.80816C9.66139 9.80816 10.2442 9.22539 10.2442 8.50908C10.2442 7.79276 9.66139 7.20996 8.94508 7.20996Z" fill="url(#paint5_linear_6821_13783)"/>
<path id="Vector_7" d="M10.5901 2.81799H12.581C12.8427 2.81799 13.0549 2.60582 13.0549 2.34406V1.82256C13.0549 1.56083 12.8427 1.34863 12.581 1.34863H10.5901C10.3284 1.34863 10.1162 1.5608 10.1162 1.82256V2.34406C10.1162 2.60579 10.3284 2.81799 10.5901 2.81799Z" fill="url(#paint6_linear_6821_13783)"/>
<path id="Vector_8" d="M12.5804 3.07072H10.5896C10.1886 3.07072 9.8623 2.74447 9.8623 2.34344V1.822C9.8623 1.42098 10.1886 1.09473 10.5896 1.09473H12.5804C12.9814 1.09473 13.3077 1.42098 13.3077 1.822V2.34348C13.3077 2.7445 12.9814 3.07072 12.5804 3.07072ZM10.5896 1.6014C10.5311 1.60146 10.475 1.62471 10.4337 1.66607C10.3923 1.70742 10.3691 1.76349 10.369 1.82197V2.34344C10.3691 2.40193 10.3923 2.45799 10.4337 2.49935C10.475 2.5407 10.5311 2.56396 10.5896 2.56402H12.5804C12.6389 2.56396 12.695 2.5407 12.7363 2.49935C12.7777 2.45799 12.8009 2.40193 12.801 2.34344V1.822C12.8009 1.76352 12.7777 1.70745 12.7363 1.6661C12.695 1.62475 12.6389 1.60149 12.5804 1.60143L10.5896 1.6014Z" fill="url(#paint7_linear_6821_13783)"/>
<path id="Vector_9" d="M3.81649 13.1789C4.32244 13.1789 4.73259 12.7687 4.73259 12.2628C4.73259 11.7568 4.32244 11.3467 3.81649 11.3467C3.31054 11.3467 2.90039 11.7568 2.90039 12.2628C2.90039 12.7687 3.31054 13.1789 3.81649 13.1789Z" fill="url(#paint8_linear_6821_13783)"/>
</g>
<defs>
<linearGradient id="paint0_linear_6821_13783" x1="-1.52349" y1="-4.01101" x2="5.36119" y2="4.62263" gradientUnits="userSpaceOnUse">
<stop offset="0.402843" stop-color="#F6BB91" stop-opacity="0.549561"/>
<stop offset="0.907674" stop-color="white"/>
</linearGradient>
<linearGradient id="paint1_linear_6821_13783" x1="8.94614" y1="0.535298" x2="8.94614" y2="14.0987" gradientUnits="userSpaceOnUse">
<stop stop-color="#E0B181"/>
<stop offset="1" stop-color="#BE9367"/>
</linearGradient>
<linearGradient id="paint2_linear_6821_13783" x1="8.94614" y1="6.11871" x2="8.94614" y2="14.1061" gradientUnits="userSpaceOnUse">
<stop stop-color="#E0B181"/>
<stop offset="1" stop-color="#BE9367"/>
</linearGradient>
<linearGradient id="paint3_linear_6821_13783" x1="-11.9769" y1="-12.2236" x2="7.50453" y2="22.7994" gradientUnits="userSpaceOnUse">
<stop offset="0.402843" stop-color="#F6BB91" stop-opacity="0.549561"/>
<stop offset="0.907674" stop-color="white"/>
</linearGradient>
<linearGradient id="paint4_linear_6821_13783" x1="-12.6521" y1="-13.3155" x2="7.96146" y2="23.1451" gradientUnits="userSpaceOnUse">
<stop offset="0.402843" stop-color="#F6BB91" stop-opacity="0.549561"/>
<stop offset="0.907674" stop-color="white"/>
</linearGradient>
<linearGradient id="paint5_linear_6821_13783" x1="8.94514" y1="7.22872" x2="8.94514" y2="9.80482" gradientUnits="userSpaceOnUse">
<stop stop-color="#E0B181"/>
<stop offset="1" stop-color="#BE9367"/>
</linearGradient>
<linearGradient id="paint6_linear_6821_13783" x1="11.5856" y1="1.35924" x2="11.5856" y2="2.81609" gradientUnits="userSpaceOnUse">
<stop stop-color="#E0B181"/>
<stop offset="1" stop-color="#BE9367"/>
</linearGradient>
<linearGradient id="paint7_linear_6821_13783" x1="3.57702" y1="-2.5432" x2="6.579" y2="6.71506" gradientUnits="userSpaceOnUse">
<stop offset="0.402843" stop-color="#F6BB91" stop-opacity="0.549561"/>
<stop offset="0.907674" stop-color="white"/>
</linearGradient>
<linearGradient id="paint8_linear_6821_13783" x1="-0.442025" y1="7.97349" x2="3.62248" y2="15.1626" gradientUnits="userSpaceOnUse">
<stop offset="0.402843" stop-color="#F6BB91" stop-opacity="0.549561"/>
<stop offset="0.907674" stop-color="white"/>
</linearGradient>
</defs>
</svg>
