<svg width="18" height="18" viewBox="0 0 18 18" fill="none" xmlns="http://www.w3.org/2000/svg">
<g id="icons8-shopee 1">
<path id="Vector" d="M8.99997 0C7.05759 0 5.57404 1.85743 5.4143 4.125H1.72893C1.31509 4.125 0.978097 4.49287 1.00111 4.91748L1.62994 16.2319C1.68444 17.2208 2.48672 18 3.44948 18H14.5505C15.5135 18 16.3155 17.2207 16.37 16.2319L16.9988 4.91821C17.0226 4.4933 16.6848 4.125 16.271 4.125H12.5856C12.4259 1.85743 10.9423 0 8.99997 0ZM8.99997 0.75C10.4719 0.75 11.7014 2.20755 11.8571 4.125H6.14283C6.29852 2.20755 7.52802 0.75 8.99997 0.75ZM9.02916 6.375C10.4293 6.375 11.479 7.14785 11.5665 7.2041L11.1912 7.83032C11.1001 7.76657 10.9363 7.66494 10.8743 7.62744C10.5024 7.42119 9.81674 7.11401 9.02916 7.11401C7.84415 7.11401 6.98743 7.78875 6.98743 8.71875C6.98743 9.645 7.78222 10.0124 9.08756 10.5037C10.4111 10.9987 11.9062 11.5611 11.9062 13.3499C11.9062 14.6961 10.6153 15.7537 8.96721 15.7537C7.51237 15.7537 6.31639 14.8351 6.02105 14.5913L6.42555 13.9724C6.43649 13.9837 7.59988 15.011 8.96721 15.011C10.1923 15.011 11.1877 14.2649 11.1877 13.3499C11.1877 12.1649 10.3019 11.7448 8.83973 11.1973C7.63649 10.7435 6.26888 10.23 6.26888 8.71875C6.26888 7.38375 7.45401 6.375 9.02916 6.375Z" fill="url(#paint0_linear_6851_85723)"/>
</g>
<defs>
<linearGradient id="paint0_linear_6851_85723" x1="9.00034" y1="0.129968" x2="9.00034" y2="30.305" gradientUnits="userSpaceOnUse">
<stop stop-color="#FFC78D"/>
<stop offset="0.434814" stop-color="#DA6E00"/>
<stop offset="1" stop-color="#FFDEBD"/>
</linearGradient>
</defs>
</svg>
