<svg width="17" height="17" viewBox="0 0 17 17" fill="none" xmlns="http://www.w3.org/2000/svg">
<g id="Group">
<path id="Vector" d="M11.6854 15.2683H5.53618C5.47225 15.2683 5.44743 15.1807 5.50079 15.1436L6.01589 14.7804C6.57152 14.3885 6.83435 13.67 6.67225 12.9854H10.5499V12.9859C10.3878 13.6708 10.6509 14.3891 11.2069 14.7809L11.7214 15.1436C11.7742 15.181 11.7491 15.2683 11.6854 15.2683Z" fill="url(#paint0_linear_6821_13742)"/>
<path id="Vector_2" d="M15.8884 12.9852H1.3332C1.06845 12.9852 0.814545 12.88 0.627339 12.6928C0.440132 12.5056 0.334961 12.2517 0.334961 11.987V1.42695C0.334961 1.1622 0.440132 0.908295 0.627339 0.721089C0.814545 0.533882 1.06845 0.428711 1.3332 0.428711H15.8882C16.0193 0.428673 16.1491 0.454466 16.2703 0.504616C16.3914 0.554765 16.5015 0.628289 16.5942 0.720988C16.6869 0.813687 16.7605 0.923745 16.8107 1.04488C16.8609 1.16601 16.8867 1.29584 16.8867 1.42695V11.9867C16.8867 12.1178 16.8609 12.2476 16.8108 12.3688C16.7606 12.4899 16.6871 12.6 16.5944 12.6927C16.5017 12.7854 16.3917 12.859 16.2705 12.9092C16.1494 12.9594 16.0196 12.9852 15.8884 12.9852Z" fill="url(#paint1_linear_6821_13742)"/>
<path id="Vector_3" d="M16.8867 10.4168H0.334961V1.42695C0.334961 1.1622 0.440132 0.908295 0.627339 0.721089C0.814545 0.533882 1.06845 0.428711 1.3332 0.428711H15.8882C16.0193 0.428673 16.1491 0.454466 16.2703 0.504616C16.3914 0.554765 16.5015 0.628289 16.5942 0.720988C16.6869 0.813687 16.7605 0.923745 16.8107 1.04488C16.8609 1.16601 16.8867 1.29584 16.8867 1.42695V10.4168Z" fill="url(#paint2_linear_6821_13742)"/>
<path id="Vector_4" d="M11.893 16.1237H5.32943C5.094 16.1237 4.90137 15.9311 4.90137 15.6956C4.90137 15.4602 5.094 15.2676 5.32943 15.2676H11.893C12.1285 15.2676 12.3211 15.4602 12.3211 15.6956C12.3211 15.9311 12.1285 16.1237 11.893 16.1237Z" fill="url(#paint3_linear_6821_13742)"/>
</g>
<defs>
<linearGradient id="paint0_linear_6821_13742" x1="-5.98162" y1="8.78221" x2="-4.14821" y2="23.9478" gradientUnits="userSpaceOnUse">
<stop offset="0.312591" stop-color="#F6BB91" stop-opacity="0.549561"/>
<stop offset="0.792486" stop-color="#B48B61"/>
</linearGradient>
<linearGradient id="paint1_linear_6821_13742" x1="8.61118" y1="0.519374" x2="8.61118" y2="12.969" gradientUnits="userSpaceOnUse">
<stop stop-color="#E0B181"/>
<stop offset="1" stop-color="#BE9367"/>
</linearGradient>
<linearGradient id="paint2_linear_6821_13742" x1="-29.8598" y1="-17.96" x2="-13.6529" y2="27.78" gradientUnits="userSpaceOnUse">
<stop offset="0.565205" stop-color="#F6BB91" stop-opacity="0.549561"/>
<stop offset="0.907674" stop-color="white"/>
</linearGradient>
<linearGradient id="paint3_linear_6821_13742" x1="8.6114" y1="15.2738" x2="8.6114" y2="16.1226" gradientUnits="userSpaceOnUse">
<stop stop-color="#E0B181"/>
<stop offset="1" stop-color="#BE9367"/>
</linearGradient>
</defs>
</svg>
