<svg width="22" height="23" viewBox="0 0 22 23" fill="none" xmlns="http://www.w3.org/2000/svg">
<g id="icons8-shopee 1" clip-path="url(#clip0_1120_69441)">
<path id="Vector" d="M11.0004 0.0136719C8.62637 0.0136719 6.81315 2.28386 6.61791 5.05534H2.11357C1.60776 5.05534 1.19589 5.50496 1.22402 6.02393L1.99258 19.8527C2.0592 21.0613 3.03976 22.0137 4.21646 22.0137H17.7843C18.9614 22.0137 19.9416 21.0612 20.0082 19.8527L20.7768 6.02482C20.8058 5.50549 20.393 5.05534 19.8872 5.05534H15.3829C15.1876 2.28386 13.3744 0.0136719 11.0004 0.0136719ZM11.0004 0.930339C12.7994 0.930339 14.3022 2.71178 14.4925 5.05534H7.50833C7.69863 2.71178 9.20134 0.930339 11.0004 0.930339ZM11.0361 7.80534C12.7474 7.80534 14.0304 8.74994 14.1373 8.81869L13.6786 9.58407C13.5672 9.50615 13.3671 9.38193 13.2913 9.3361C12.8367 9.08402 11.9987 8.70858 11.0361 8.70858C9.58773 8.70858 8.54063 9.53326 8.54063 10.6699C8.54063 11.802 9.51204 12.2511 11.1075 12.8515C12.7251 13.4565 14.5525 14.1439 14.5525 16.3302C14.5525 17.9756 12.9747 19.2681 10.9604 19.2681C9.18222 19.2681 7.72047 18.1454 7.35949 17.8475L7.85388 17.0911C7.86725 17.1048 9.28918 18.3604 10.9604 18.3604C12.4577 18.3604 13.6743 17.4485 13.6743 16.3302C13.6743 14.8818 12.5916 14.3684 10.8046 13.6992C9.33392 13.1446 7.66239 12.517 7.66239 10.6699C7.66239 9.03826 9.11088 7.80534 11.0361 7.80534Z" fill="#F1451F"/>
</g>
<defs>
<clipPath id="clip0_1120_69441">
<rect width="22" height="22" fill="white" transform="translate(0 0.0136719)"/>
</clipPath>
</defs>
</svg>
