<svg width="19" height="20" viewBox="0 0 19 20" fill="none" xmlns="http://www.w3.org/2000/svg">
<g id="Search results for Tiktok - Flaticon-12 2" clip-path="url(#clip0_1120_69448)">
<g id="Group">
<g id="Group_2">
<path id="Vector" d="M6.75753 9.8625C5.25089 9.8625 4.0337 11.0797 4.05596 12.5715C4.07081 13.5289 4.59776 14.3602 5.37335 14.824C5.10987 14.4195 4.95401 13.9408 4.94659 13.425C4.92432 11.9332 6.14151 10.716 7.64815 10.716C7.94503 10.716 8.23077 10.7643 8.49796 10.8496V7.8623C8.21964 7.82148 7.93389 7.79922 7.64815 7.79922H7.60733V9.99609C7.34014 9.91074 7.0544 9.8625 6.75753 9.8625ZM13.2702 0.904297H12.4761C12.6987 2.02129 13.3259 2.99355 14.2017 3.6541C13.6265 2.89336 13.2776 1.94336 13.2702 0.904297Z" fill="#F00044"/>
<path id="Vector_2" d="M17.8121 5.45078C17.5189 5.45078 17.2369 5.42109 16.9586 5.36914V7.51035C15.9492 7.51035 14.9695 7.31367 14.0492 6.92031C13.4555 6.66797 12.9025 6.34512 12.3941 5.95547L12.409 12.5572C12.4016 14.0416 11.8152 15.4332 10.7539 16.4834C9.88926 17.3369 8.79453 17.8824 7.60703 18.0568C7.32871 18.0977 7.04297 18.1199 6.75723 18.1199C5.48809 18.1199 4.27832 17.708 3.29492 16.9473C3.40625 17.0809 3.525 17.2107 3.65488 17.3369C4.72363 18.3908 6.14121 18.9734 7.65156 18.9734C7.9373 18.9734 8.22305 18.9512 8.50137 18.9104C9.68887 18.7359 10.7836 18.1904 11.6482 17.3369C12.7096 16.2867 13.2959 14.8951 13.3033 13.4107L13.2477 6.80898C13.7523 7.19863 14.3053 7.5252 14.9027 7.77383C15.8268 8.16348 16.8064 8.36387 17.8121 8.36387" fill="#F00044"/>
</g>
<path id="Vector_3" d="M3.64377 9.44336C4.70138 8.39316 6.10783 7.81055 7.60705 7.79941V7.00898C7.32873 6.96816 7.04299 6.9459 6.75724 6.9459C5.24318 6.9459 3.82189 7.52852 2.75314 8.58984C1.70295 9.63262 1.10177 11.0576 1.10549 12.5383C1.10549 14.0301 1.69552 15.4291 2.76056 16.4867C2.93127 16.6537 3.10568 16.8096 3.29123 16.9506C2.45256 15.9523 1.99611 14.7055 1.9924 13.3918C1.99611 11.9111 2.59357 10.4861 3.64377 9.44336ZM16.9586 5.36875V4.57461H16.9512C15.9195 4.57461 14.9695 4.2332 14.2051 3.6543C14.8694 4.53008 15.8416 5.15352 16.9586 5.36875Z" fill="#08FFF9"/>
<path id="Vector_4" d="M7.4957 16.0523C7.84824 16.0709 8.18594 16.0227 8.49766 15.9225C9.57383 15.5699 10.3494 14.568 10.3494 13.3879L10.3531 8.97188V0.904297H12.4758C12.4201 0.625977 12.3904 0.343945 12.3867 0.0507812H9.4625V8.11465L9.45879 12.5307C9.45879 13.7107 8.6832 14.7127 7.60703 15.0652C7.29531 15.1691 6.95762 15.2174 6.60508 15.1951C6.15605 15.1691 5.73672 15.0355 5.37305 14.8203C5.82949 15.5254 6.60879 16.0041 7.4957 16.0523Z" fill="#08FFF9"/>
<path id="Vector_5" d="M7.60705 18.0562C8.79455 17.8818 9.88927 17.3363 10.7539 16.4828C11.8153 15.4326 12.4016 14.041 12.409 12.5566L12.3942 5.95488C12.8988 6.34453 13.4518 6.67109 14.0492 6.91973C14.9733 7.30938 15.9529 7.50977 16.9586 7.50977V5.36855C15.8416 5.15332 14.8694 4.52988 14.2051 3.6541C13.3293 2.99355 12.6985 2.02129 12.4795 0.904297H10.3531V8.96816L10.3494 13.3842C10.3494 14.5643 9.57384 15.5662 8.49767 15.9187C8.18595 16.0227 7.84826 16.0709 7.49572 16.0486C6.60509 16.0004 5.82951 15.5217 5.37306 14.8203C4.59748 14.3602 4.07053 13.5252 4.05568 12.5678C4.03342 11.076 5.2506 9.85879 6.75724 9.85879C7.05412 9.85879 7.33986 9.90703 7.60705 9.99238V7.79551C6.10783 7.80664 4.70138 8.38926 3.64377 9.43945C2.59357 10.4822 1.9924 11.9072 1.99611 13.3842C1.99611 14.6979 2.45256 15.9447 3.29494 16.943C4.28205 17.7037 5.4881 18.1156 6.75724 18.1156C7.04299 18.1193 7.32873 18.0971 7.60705 18.0562Z" fill="black"/>
</g>
</g>
<defs>
<clipPath id="clip0_1120_69448">
<rect width="19" height="19" fill="white" transform="translate(0 0.0136719)"/>
</clipPath>
</defs>
</svg>
