<svg width="18" height="17" viewBox="0 0 18 17" fill="none" xmlns="http://www.w3.org/2000/svg">
<g clip-path="url(#clip0_6821_13718)">
<path d="M13.6012 16.5531H4.05932C3.16556 16.5531 2.43848 15.826 2.43848 14.9323V1.6228C2.43844 0.729067 3.16556 0.00195312 4.05932 0.00195312H13.6012C14.4949 0.00195312 15.222 0.729067 15.222 1.6228V14.9323C15.222 15.826 14.4949 16.5531 13.6012 16.5531Z" fill="url(#paint0_linear_6821_13718)"/>
<path d="M3.68172 1.72949C3.47653 1.72949 3.30957 1.89641 3.30957 2.10164V14.0956C3.30957 14.3009 3.47653 14.4678 3.68172 14.4678H13.9783C14.1835 14.4678 14.3504 14.3008 14.3504 14.0956V2.10164C14.3504 1.89641 14.1835 1.72949 13.9783 1.72949H3.68172Z" fill="url(#paint1_linear_6821_13718)"/>
<path d="M8.04092 1.29369C7.94417 1.19696 7.94262 1.03869 8.04092 0.940345C8.13752 0.843685 8.29654 0.842877 8.39394 0.940345C8.49186 1.0383 8.49109 1.19657 8.39394 1.29369C8.29631 1.39135 8.13736 1.39015 8.04092 1.29369ZM9.92951 1.36678H9.10932C9.04377 1.36572 8.98125 1.33894 8.93527 1.29221C8.88928 1.24548 8.86351 1.18255 8.86351 1.11698C8.86351 1.05142 8.88928 0.988486 8.93527 0.941755C8.98125 0.895024 9.04377 0.868242 9.10932 0.867188H9.92951C9.99576 0.867188 10.0593 0.893505 10.1061 0.940351C10.153 0.987197 10.1793 1.05073 10.1793 1.11698C10.1793 1.18323 10.153 1.24677 10.1061 1.29362C10.0593 1.34046 9.99576 1.36678 9.92951 1.36678ZM9.34124 15.2839C9.34124 15.5663 9.11229 15.7952 8.82994 15.7952C8.54756 15.7952 8.31865 15.5663 8.31865 15.2839C8.31865 15.0015 8.5476 14.7726 8.82994 14.7726C9.11229 14.7726 9.34124 15.0016 9.34124 15.2839Z" fill="url(#paint2_linear_6821_13718)"/>
<path d="M9.34473 12.517V11.0465H10.988V12.517C10.988 12.8393 10.6814 13.1006 10.3033 13.1006H10.0294C9.65127 13.1006 9.34473 12.8393 9.34473 12.517Z" fill="url(#paint3_linear_6821_13718)"/>
<path d="M6.87988 12.517V11.0465H8.52313V12.517C8.52313 12.8393 8.15528 13.1006 7.70151 13.1006C7.24773 13.1006 6.87988 12.8393 6.87988 12.517Z" fill="url(#paint4_linear_6821_13718)"/>
<path d="M11.9123 10.4297C11.5152 10.4297 11.1934 10.1078 11.1934 9.71077V7.55401H11.7685C12.245 7.55401 12.6312 7.94025 12.6312 8.41671V9.71077C12.6312 10.1078 12.3093 10.4297 11.9123 10.4297Z" fill="url(#paint5_linear_6821_13718)"/>
<path d="M5.03125 9.71077V8.41671C5.03125 7.94025 5.41749 7.55401 5.89395 7.55401H6.46909V9.71077C6.46909 10.1078 6.14723 10.4297 5.75017 10.4297C5.35312 10.4297 5.03125 10.1078 5.03125 9.71077Z" fill="url(#paint6_linear_6821_13718)"/>
<path d="M10.9205 11.0459H6.74131C6.59078 11.0459 6.46875 10.9225 6.46875 10.7702V7.554H11.1931V10.7702C11.1931 10.9225 11.0711 11.0459 10.9205 11.0459Z" fill="url(#paint7_linear_6821_13718)"/>
<path d="M10.4701 5.09473C10.4111 5.09473 10.3515 5.07629 10.3007 5.03814C10.1757 4.94441 10.1504 4.76713 10.2441 4.64217L11.0562 3.55928C11.15 3.43434 11.3273 3.40902 11.4522 3.50271C11.5772 3.59644 11.6025 3.77373 11.5088 3.89868L10.6966 4.98157C10.6703 5.01676 10.6361 5.04531 10.5968 5.06495C10.5574 5.0846 10.5141 5.09479 10.4701 5.09473Z" fill="url(#paint8_linear_6821_13718)"/>
<path d="M7.19192 5.09473C7.14796 5.0948 7.1046 5.0846 7.06528 5.06496C7.02595 5.04531 6.99176 5.01676 6.96542 4.98157L6.15326 3.89868C6.05953 3.77373 6.08487 3.59644 6.20983 3.50271C6.33483 3.409 6.51209 3.43432 6.6058 3.55928L7.41796 4.64217C7.51169 4.76713 7.48637 4.94441 7.36139 5.03814C7.31254 5.07489 7.25305 5.09476 7.19192 5.09473Z" fill="url(#paint9_linear_6821_13718)"/>
<path d="M11.0944 7.0293H6.56897C6.41277 7.0293 6.28613 6.90266 6.28613 6.74646V6.36934C6.28613 4.96574 7.42806 3.82381 8.83167 3.82381C10.2353 3.82381 11.3772 4.96574 11.3772 6.36934V6.74646C11.3772 6.90266 11.2506 7.0293 11.0944 7.0293Z" fill="url(#paint10_linear_6821_13718)"/>
<path d="M9.77368 5.33142C9.77368 5.48762 9.64705 5.61426 9.49084 5.61426C9.33464 5.61426 9.20801 5.48762 9.20801 5.33142C9.20801 5.17522 9.33464 5.04858 9.49084 5.04858C9.64705 5.04858 9.77368 5.17522 9.77368 5.33142Z" fill="url(#paint11_linear_6821_13718)"/>
<path d="M7.88867 5.33142C7.88867 5.48762 8.01531 5.61426 8.17151 5.61426C8.32771 5.61426 8.45435 5.48762 8.45435 5.33142C8.45435 5.17522 8.32771 5.04858 8.17151 5.04858C8.01531 5.04858 7.88867 5.17522 7.88867 5.33142Z" fill="url(#paint12_linear_6821_13718)"/>
</g>
<defs>
<linearGradient id="paint0_linear_6821_13718" x1="8.83053" y1="0.12146" x2="8.83053" y2="16.5318" gradientUnits="userSpaceOnUse">
<stop stop-color="#E0B181"/>
<stop offset="1" stop-color="#BE9367"/>
</linearGradient>
<linearGradient id="paint1_linear_6821_13718" x1="8.83023" y1="1.82147" x2="8.83023" y2="23.1758" gradientUnits="userSpaceOnUse">
<stop stop-color="#FFE5CB"/>
<stop offset="1" stop-color="#EEC093"/>
</linearGradient>
<linearGradient id="paint2_linear_6821_13718" x1="9.07358" y1="0.974974" x2="9.07358" y2="27.244" gradientUnits="userSpaceOnUse">
<stop stop-color="#FFE5CB"/>
<stop offset="1" stop-color="#FFE1C4"/>
</linearGradient>
<linearGradient id="paint3_linear_6821_13718" x1="10.1664" y1="13.0858" x2="10.1664" y2="11.0492" gradientUnits="userSpaceOnUse">
<stop stop-color="#E0B181"/>
<stop offset="1" stop-color="#BE9367"/>
</linearGradient>
<linearGradient id="paint4_linear_6821_13718" x1="7.70154" y1="13.0858" x2="7.70154" y2="11.0492" gradientUnits="userSpaceOnUse">
<stop stop-color="#E0B181"/>
<stop offset="1" stop-color="#BE9367"/>
</linearGradient>
<linearGradient id="paint5_linear_6821_13718" x1="11.9123" y1="10.4089" x2="11.9123" y2="7.55771" gradientUnits="userSpaceOnUse">
<stop stop-color="#E0B181"/>
<stop offset="1" stop-color="#BE9367"/>
</linearGradient>
<linearGradient id="paint6_linear_6821_13718" x1="5.7502" y1="10.4089" x2="5.7502" y2="7.55771" gradientUnits="userSpaceOnUse">
<stop stop-color="#E0B181"/>
<stop offset="1" stop-color="#BE9367"/>
</linearGradient>
<linearGradient id="paint7_linear_6821_13718" x1="8.83102" y1="11.0207" x2="8.83102" y2="7.55849" gradientUnits="userSpaceOnUse">
<stop stop-color="#E0B181"/>
<stop offset="1" stop-color="#BE9367"/>
</linearGradient>
<linearGradient id="paint8_linear_6821_13718" x1="10.8765" y1="5.08282" x2="10.8765" y2="3.44827" gradientUnits="userSpaceOnUse">
<stop stop-color="#E0B181"/>
<stop offset="1" stop-color="#BE9367"/>
</linearGradient>
<linearGradient id="paint9_linear_6821_13718" x1="6.78565" y1="5.08282" x2="6.78565" y2="3.44826" gradientUnits="userSpaceOnUse">
<stop stop-color="#E0B181"/>
<stop offset="1" stop-color="#BE9367"/>
</linearGradient>
<linearGradient id="paint10_linear_6821_13718" x1="8.83177" y1="7.00615" x2="8.83177" y2="3.82794" gradientUnits="userSpaceOnUse">
<stop stop-color="#E0B181"/>
<stop offset="1" stop-color="#BE9367"/>
</linearGradient>
<linearGradient id="paint11_linear_6821_13718" x1="9.49086" y1="5.61017" x2="9.49086" y2="5.04931" gradientUnits="userSpaceOnUse">
<stop stop-color="#FFE5CB"/>
<stop offset="1" stop-color="#EEC093"/>
</linearGradient>
<linearGradient id="paint12_linear_6821_13718" x1="8.17152" y1="5.61017" x2="8.17152" y2="5.04931" gradientUnits="userSpaceOnUse">
<stop stop-color="#FFE5CB"/>
<stop offset="1" stop-color="#EEC093"/>
</linearGradient>
<clipPath id="clip0_6821_13718">
<rect width="16.5517" height="16.5517" fill="white" transform="translate(0.556641)"/>
</clipPath>
</defs>
</svg>
